<mxfile host="app.diagrams.net" agent="Mozilla/5.0 (Windows NT 10.0; Win64; x64) AppleWebKit/537.36 (KHTML, like Gecko) Chrome/130.0.0.0 Safari/537.36" version="24.8.3">
  <diagram name="Página-1" id="PMsqZecU0XxBIimgPMBO">
    <mxGraphModel dx="1195" dy="687" grid="1" gridSize="10" guides="1" tooltips="1" connect="1" arrows="1" fold="1" page="1" pageScale="1" pageWidth="827" pageHeight="1169" math="0" shadow="0">
      <root>
        <mxCell id="0" />
        <mxCell id="1" parent="0" />
        <mxCell id="o4-KJ6wp64jlqF8P8WxI-15" style="edgeStyle=orthogonalEdgeStyle;rounded=0;orthogonalLoop=1;jettySize=auto;html=1;entryX=0;entryY=1;entryDx=0;entryDy=0;exitX=0.878;exitY=0.067;exitDx=0;exitDy=0;exitPerimeter=0;" edge="1" parent="1" source="o4-KJ6wp64jlqF8P8WxI-1" target="o4-KJ6wp64jlqF8P8WxI-10">
          <mxGeometry relative="1" as="geometry">
            <mxPoint x="660" y="100" as="sourcePoint" />
          </mxGeometry>
        </mxCell>
        <mxCell id="o4-KJ6wp64jlqF8P8WxI-16" style="edgeStyle=orthogonalEdgeStyle;rounded=0;orthogonalLoop=1;jettySize=auto;html=1;entryX=0;entryY=1;entryDx=0;entryDy=0;" edge="1" parent="1" source="o4-KJ6wp64jlqF8P8WxI-1" target="o4-KJ6wp64jlqF8P8WxI-11">
          <mxGeometry relative="1" as="geometry" />
        </mxCell>
        <mxCell id="o4-KJ6wp64jlqF8P8WxI-61" style="edgeStyle=orthogonalEdgeStyle;rounded=0;orthogonalLoop=1;jettySize=auto;html=1;exitX=0;exitY=0;exitDx=0;exitDy=0;entryX=0.5;entryY=1;entryDx=0;entryDy=0;" edge="1" parent="1" source="o4-KJ6wp64jlqF8P8WxI-1" target="o4-KJ6wp64jlqF8P8WxI-6">
          <mxGeometry relative="1" as="geometry" />
        </mxCell>
        <mxCell id="o4-KJ6wp64jlqF8P8WxI-67" style="edgeStyle=orthogonalEdgeStyle;rounded=0;orthogonalLoop=1;jettySize=auto;html=1;exitX=0.75;exitY=1;exitDx=0;exitDy=0;entryX=0.5;entryY=0;entryDx=0;entryDy=0;" edge="1" parent="1" source="o4-KJ6wp64jlqF8P8WxI-1" target="o4-KJ6wp64jlqF8P8WxI-71">
          <mxGeometry relative="1" as="geometry">
            <mxPoint x="630" y="199.9999999999999" as="targetPoint" />
            <Array as="points">
              <mxPoint x="638" y="170" />
              <mxPoint x="631" y="170" />
              <mxPoint x="631" y="200" />
              <mxPoint x="630" y="200" />
            </Array>
          </mxGeometry>
        </mxCell>
        <mxCell id="o4-KJ6wp64jlqF8P8WxI-74" style="edgeStyle=orthogonalEdgeStyle;rounded=0;orthogonalLoop=1;jettySize=auto;html=1;exitX=0;exitY=1;exitDx=0;exitDy=0;entryX=1;entryY=0.5;entryDx=0;entryDy=0;" edge="1" parent="1" source="o4-KJ6wp64jlqF8P8WxI-1" target="o4-KJ6wp64jlqF8P8WxI-73">
          <mxGeometry relative="1" as="geometry" />
        </mxCell>
        <mxCell id="o4-KJ6wp64jlqF8P8WxI-1" value="CLIENTES" style="rounded=0;whiteSpace=wrap;html=1;" vertex="1" parent="1">
          <mxGeometry x="570" y="110" width="90" height="30" as="geometry" />
        </mxCell>
        <mxCell id="o4-KJ6wp64jlqF8P8WxI-20" style="edgeStyle=orthogonalEdgeStyle;rounded=0;orthogonalLoop=1;jettySize=auto;html=1;entryX=0;entryY=1;entryDx=0;entryDy=0;" edge="1" parent="1" source="o4-KJ6wp64jlqF8P8WxI-2" target="o4-KJ6wp64jlqF8P8WxI-17">
          <mxGeometry relative="1" as="geometry" />
        </mxCell>
        <mxCell id="o4-KJ6wp64jlqF8P8WxI-22" style="edgeStyle=orthogonalEdgeStyle;rounded=0;orthogonalLoop=1;jettySize=auto;html=1;exitX=1;exitY=0.25;exitDx=0;exitDy=0;entryX=0;entryY=1;entryDx=0;entryDy=0;" edge="1" parent="1" source="o4-KJ6wp64jlqF8P8WxI-2" target="o4-KJ6wp64jlqF8P8WxI-19">
          <mxGeometry relative="1" as="geometry">
            <Array as="points">
              <mxPoint x="190" y="118" />
              <mxPoint x="190" y="46" />
            </Array>
          </mxGeometry>
        </mxCell>
        <mxCell id="o4-KJ6wp64jlqF8P8WxI-25" style="edgeStyle=orthogonalEdgeStyle;rounded=0;orthogonalLoop=1;jettySize=auto;html=1;exitX=1;exitY=0;exitDx=0;exitDy=0;entryX=0.5;entryY=1;entryDx=0;entryDy=0;" edge="1" parent="1" source="o4-KJ6wp64jlqF8P8WxI-2" target="o4-KJ6wp64jlqF8P8WxI-18">
          <mxGeometry relative="1" as="geometry" />
        </mxCell>
        <mxCell id="o4-KJ6wp64jlqF8P8WxI-69" style="edgeStyle=orthogonalEdgeStyle;rounded=0;orthogonalLoop=1;jettySize=auto;html=1;entryX=0;entryY=0.5;entryDx=0;entryDy=0;" edge="1" parent="1" source="o4-KJ6wp64jlqF8P8WxI-2" target="o4-KJ6wp64jlqF8P8WxI-68">
          <mxGeometry relative="1" as="geometry" />
        </mxCell>
        <mxCell id="o4-KJ6wp64jlqF8P8WxI-84" style="edgeStyle=orthogonalEdgeStyle;rounded=0;orthogonalLoop=1;jettySize=auto;html=1;exitX=1;exitY=0.25;exitDx=0;exitDy=0;entryX=0;entryY=0.5;entryDx=0;entryDy=0;" edge="1" parent="1" source="o4-KJ6wp64jlqF8P8WxI-2" target="o4-KJ6wp64jlqF8P8WxI-83">
          <mxGeometry relative="1" as="geometry" />
        </mxCell>
        <mxCell id="o4-KJ6wp64jlqF8P8WxI-2" value="EMPLEADOS" style="rounded=0;whiteSpace=wrap;html=1;" vertex="1" parent="1">
          <mxGeometry x="80" y="130" width="90" height="30" as="geometry" />
        </mxCell>
        <mxCell id="o4-KJ6wp64jlqF8P8WxI-28" style="edgeStyle=orthogonalEdgeStyle;rounded=0;orthogonalLoop=1;jettySize=auto;html=1;exitX=0;exitY=0;exitDx=0;exitDy=0;entryX=0.5;entryY=1;entryDx=0;entryDy=0;" edge="1" parent="1" source="o4-KJ6wp64jlqF8P8WxI-3" target="o4-KJ6wp64jlqF8P8WxI-27">
          <mxGeometry relative="1" as="geometry" />
        </mxCell>
        <mxCell id="o4-KJ6wp64jlqF8P8WxI-31" style="edgeStyle=orthogonalEdgeStyle;rounded=0;orthogonalLoop=1;jettySize=auto;html=1;entryX=0.5;entryY=1;entryDx=0;entryDy=0;" edge="1" parent="1" source="o4-KJ6wp64jlqF8P8WxI-3" target="o4-KJ6wp64jlqF8P8WxI-30">
          <mxGeometry relative="1" as="geometry" />
        </mxCell>
        <mxCell id="o4-KJ6wp64jlqF8P8WxI-33" style="edgeStyle=orthogonalEdgeStyle;rounded=0;orthogonalLoop=1;jettySize=auto;html=1;exitX=1;exitY=0;exitDx=0;exitDy=0;entryX=0.5;entryY=1;entryDx=0;entryDy=0;" edge="1" parent="1" source="o4-KJ6wp64jlqF8P8WxI-3" target="o4-KJ6wp64jlqF8P8WxI-32">
          <mxGeometry relative="1" as="geometry" />
        </mxCell>
        <mxCell id="o4-KJ6wp64jlqF8P8WxI-3" value="PRODUCTO" style="rounded=0;whiteSpace=wrap;html=1;" vertex="1" parent="1">
          <mxGeometry x="90" y="520" width="90" height="30" as="geometry" />
        </mxCell>
        <mxCell id="o4-KJ6wp64jlqF8P8WxI-44" style="edgeStyle=orthogonalEdgeStyle;rounded=0;orthogonalLoop=1;jettySize=auto;html=1;exitX=0.75;exitY=0;exitDx=0;exitDy=0;entryX=0.389;entryY=1.1;entryDx=0;entryDy=0;entryPerimeter=0;" edge="1" parent="1" source="o4-KJ6wp64jlqF8P8WxI-4" target="o4-KJ6wp64jlqF8P8WxI-40">
          <mxGeometry relative="1" as="geometry">
            <Array as="points">
              <mxPoint x="250" y="360" />
              <mxPoint x="250" y="290" />
              <mxPoint x="275" y="290" />
              <mxPoint x="275" y="263" />
            </Array>
          </mxGeometry>
        </mxCell>
        <mxCell id="o4-KJ6wp64jlqF8P8WxI-100" style="edgeStyle=orthogonalEdgeStyle;rounded=0;orthogonalLoop=1;jettySize=auto;html=1;exitX=0.25;exitY=0;exitDx=0;exitDy=0;entryX=0.5;entryY=1;entryDx=0;entryDy=0;" edge="1" parent="1" source="o4-KJ6wp64jlqF8P8WxI-4" target="o4-KJ6wp64jlqF8P8WxI-99">
          <mxGeometry relative="1" as="geometry" />
        </mxCell>
        <mxCell id="o4-KJ6wp64jlqF8P8WxI-4" value="PEDIDOS" style="rounded=0;whiteSpace=wrap;html=1;" vertex="1" parent="1">
          <mxGeometry x="103" y="360" width="90" height="30" as="geometry" />
        </mxCell>
        <mxCell id="o4-KJ6wp64jlqF8P8WxI-50" style="edgeStyle=orthogonalEdgeStyle;rounded=0;orthogonalLoop=1;jettySize=auto;html=1;entryX=0.5;entryY=1;entryDx=0;entryDy=0;exitX=0.25;exitY=0;exitDx=0;exitDy=0;" edge="1" parent="1" source="o4-KJ6wp64jlqF8P8WxI-5" target="o4-KJ6wp64jlqF8P8WxI-47">
          <mxGeometry relative="1" as="geometry" />
        </mxCell>
        <mxCell id="o4-KJ6wp64jlqF8P8WxI-51" style="edgeStyle=orthogonalEdgeStyle;rounded=0;orthogonalLoop=1;jettySize=auto;html=1;exitX=1;exitY=0.25;exitDx=0;exitDy=0;entryX=0.5;entryY=1;entryDx=0;entryDy=0;" edge="1" parent="1" source="o4-KJ6wp64jlqF8P8WxI-5" target="o4-KJ6wp64jlqF8P8WxI-48">
          <mxGeometry relative="1" as="geometry" />
        </mxCell>
        <mxCell id="o4-KJ6wp64jlqF8P8WxI-5" value="FAVORITOS" style="rounded=0;whiteSpace=wrap;html=1;" vertex="1" parent="1">
          <mxGeometry x="585" y="440" width="90" height="30" as="geometry" />
        </mxCell>
        <mxCell id="o4-KJ6wp64jlqF8P8WxI-6" value="&lt;u&gt;ID_Usuario&lt;/u&gt;" style="ellipse;whiteSpace=wrap;html=1;" vertex="1" parent="1">
          <mxGeometry x="500" y="30" width="70" height="30" as="geometry" />
        </mxCell>
        <mxCell id="o4-KJ6wp64jlqF8P8WxI-9" value="Nombre" style="ellipse;whiteSpace=wrap;html=1;" vertex="1" parent="1">
          <mxGeometry x="580" y="10" width="70" height="30" as="geometry" />
        </mxCell>
        <mxCell id="o4-KJ6wp64jlqF8P8WxI-10" value="Apellidos" style="ellipse;whiteSpace=wrap;html=1;" vertex="1" parent="1">
          <mxGeometry x="660" y="10" width="70" height="30" as="geometry" />
        </mxCell>
        <mxCell id="o4-KJ6wp64jlqF8P8WxI-11" value="Contraseña" style="ellipse;whiteSpace=wrap;html=1;" vertex="1" parent="1">
          <mxGeometry x="710" y="50" width="70" height="30" as="geometry" />
        </mxCell>
        <mxCell id="o4-KJ6wp64jlqF8P8WxI-17" value="&lt;u&gt;ID_Empleado&lt;/u&gt;" style="ellipse;whiteSpace=wrap;html=1;" vertex="1" parent="1">
          <mxGeometry x="20" y="30" width="70" height="30" as="geometry" />
        </mxCell>
        <mxCell id="o4-KJ6wp64jlqF8P8WxI-18" value="Nombre" style="ellipse;whiteSpace=wrap;html=1;" vertex="1" parent="1">
          <mxGeometry x="113" y="10" width="70" height="30" as="geometry" />
        </mxCell>
        <mxCell id="o4-KJ6wp64jlqF8P8WxI-19" value="Apellidos" style="ellipse;whiteSpace=wrap;html=1;" vertex="1" parent="1">
          <mxGeometry x="210" y="20" width="70" height="30" as="geometry" />
        </mxCell>
        <mxCell id="o4-KJ6wp64jlqF8P8WxI-26" style="edgeStyle=orthogonalEdgeStyle;rounded=0;orthogonalLoop=1;jettySize=auto;html=1;exitX=0.5;exitY=1;exitDx=0;exitDy=0;" edge="1" parent="1" source="o4-KJ6wp64jlqF8P8WxI-19" target="o4-KJ6wp64jlqF8P8WxI-19">
          <mxGeometry relative="1" as="geometry" />
        </mxCell>
        <mxCell id="o4-KJ6wp64jlqF8P8WxI-27" value="&lt;u&gt;ID_Producto&lt;/u&gt;" style="ellipse;whiteSpace=wrap;html=1;direction=west;" vertex="1" parent="1">
          <mxGeometry x="10" y="440" width="80" height="30" as="geometry" />
        </mxCell>
        <mxCell id="o4-KJ6wp64jlqF8P8WxI-30" value="Nombre" style="ellipse;whiteSpace=wrap;html=1;" vertex="1" parent="1">
          <mxGeometry x="230" y="440" width="70" height="30" as="geometry" />
        </mxCell>
        <mxCell id="o4-KJ6wp64jlqF8P8WxI-32" value="Precio" style="ellipse;whiteSpace=wrap;html=1;" vertex="1" parent="1">
          <mxGeometry x="170" y="420" width="70" height="30" as="geometry" />
        </mxCell>
        <mxCell id="o4-KJ6wp64jlqF8P8WxI-36" value="&lt;u&gt;ID_Producto&lt;/u&gt;" style="ellipse;whiteSpace=wrap;html=1;" vertex="1" parent="1">
          <mxGeometry y="210" width="70" height="30" as="geometry" />
        </mxCell>
        <mxCell id="o4-KJ6wp64jlqF8P8WxI-37" style="edgeStyle=orthogonalEdgeStyle;rounded=0;orthogonalLoop=1;jettySize=auto;html=1;entryX=0.314;entryY=0.967;entryDx=0;entryDy=0;entryPerimeter=0;" edge="1" parent="1" source="o4-KJ6wp64jlqF8P8WxI-4" target="o4-KJ6wp64jlqF8P8WxI-36">
          <mxGeometry relative="1" as="geometry" />
        </mxCell>
        <mxCell id="o4-KJ6wp64jlqF8P8WxI-40" value="ID_Producto" style="ellipse;whiteSpace=wrap;html=1;" vertex="1" parent="1">
          <mxGeometry x="240" y="220" width="90" height="30" as="geometry" />
        </mxCell>
        <mxCell id="o4-KJ6wp64jlqF8P8WxI-46" value="&lt;u&gt;ID_Favorito&lt;/u&gt;" style="ellipse;whiteSpace=wrap;html=1;" vertex="1" parent="1">
          <mxGeometry x="460" y="400" width="90" height="30" as="geometry" />
        </mxCell>
        <mxCell id="o4-KJ6wp64jlqF8P8WxI-47" value="&lt;u&gt;ID_Usuario&lt;/u&gt;" style="ellipse;whiteSpace=wrap;html=1;" vertex="1" parent="1">
          <mxGeometry x="530" y="360" width="90" height="30" as="geometry" />
        </mxCell>
        <mxCell id="o4-KJ6wp64jlqF8P8WxI-48" value="&lt;u&gt;ID_Producto&lt;/u&gt;" style="ellipse;whiteSpace=wrap;html=1;" vertex="1" parent="1">
          <mxGeometry x="680" y="370" width="90" height="30" as="geometry" />
        </mxCell>
        <mxCell id="o4-KJ6wp64jlqF8P8WxI-49" style="edgeStyle=orthogonalEdgeStyle;rounded=0;orthogonalLoop=1;jettySize=auto;html=1;entryX=0.333;entryY=1.033;entryDx=0;entryDy=0;entryPerimeter=0;" edge="1" parent="1" source="o4-KJ6wp64jlqF8P8WxI-5" target="o4-KJ6wp64jlqF8P8WxI-46">
          <mxGeometry relative="1" as="geometry" />
        </mxCell>
        <mxCell id="o4-KJ6wp64jlqF8P8WxI-60" style="edgeStyle=orthogonalEdgeStyle;rounded=0;orthogonalLoop=1;jettySize=auto;html=1;exitX=0.5;exitY=0;exitDx=0;exitDy=0;entryX=0.357;entryY=0.967;entryDx=0;entryDy=0;entryPerimeter=0;" edge="1" parent="1" source="o4-KJ6wp64jlqF8P8WxI-1" target="o4-KJ6wp64jlqF8P8WxI-9">
          <mxGeometry relative="1" as="geometry" />
        </mxCell>
        <mxCell id="o4-KJ6wp64jlqF8P8WxI-70" style="edgeStyle=orthogonalEdgeStyle;rounded=0;orthogonalLoop=1;jettySize=auto;html=1;exitX=1;exitY=0.5;exitDx=0;exitDy=0;entryX=0;entryY=0.5;entryDx=0;entryDy=0;" edge="1" parent="1" source="o4-KJ6wp64jlqF8P8WxI-68" target="o4-KJ6wp64jlqF8P8WxI-1">
          <mxGeometry relative="1" as="geometry" />
        </mxCell>
        <mxCell id="o4-KJ6wp64jlqF8P8WxI-68" value="ATENDER" style="rhombus;whiteSpace=wrap;html=1;" vertex="1" parent="1">
          <mxGeometry x="350" y="90" width="70" height="60" as="geometry" />
        </mxCell>
        <mxCell id="o4-KJ6wp64jlqF8P8WxI-72" style="edgeStyle=orthogonalEdgeStyle;rounded=0;orthogonalLoop=1;jettySize=auto;html=1;" edge="1" parent="1" source="o4-KJ6wp64jlqF8P8WxI-71" target="o4-KJ6wp64jlqF8P8WxI-5">
          <mxGeometry relative="1" as="geometry" />
        </mxCell>
        <mxCell id="o4-KJ6wp64jlqF8P8WxI-82" style="edgeStyle=orthogonalEdgeStyle;rounded=0;orthogonalLoop=1;jettySize=auto;html=1;entryX=0.75;entryY=1;entryDx=0;entryDy=0;exitX=1;exitY=0.5;exitDx=0;exitDy=0;" edge="1" parent="1" source="o4-KJ6wp64jlqF8P8WxI-71" target="o4-KJ6wp64jlqF8P8WxI-3">
          <mxGeometry relative="1" as="geometry">
            <Array as="points">
              <mxPoint x="800" y="300" />
              <mxPoint x="800" y="560" />
              <mxPoint x="158" y="560" />
            </Array>
          </mxGeometry>
        </mxCell>
        <mxCell id="o4-KJ6wp64jlqF8P8WxI-71" value="AÑADIR" style="rhombus;whiteSpace=wrap;html=1;" vertex="1" parent="1">
          <mxGeometry x="600" y="270" width="60" height="60" as="geometry" />
        </mxCell>
        <mxCell id="o4-KJ6wp64jlqF8P8WxI-75" style="edgeStyle=orthogonalEdgeStyle;rounded=0;orthogonalLoop=1;jettySize=auto;html=1;exitX=0;exitY=0.5;exitDx=0;exitDy=0;entryX=1;entryY=0.5;entryDx=0;entryDy=0;" edge="1" parent="1" source="o4-KJ6wp64jlqF8P8WxI-73" target="o4-KJ6wp64jlqF8P8WxI-4">
          <mxGeometry relative="1" as="geometry">
            <Array as="points">
              <mxPoint x="345" y="370" />
              <mxPoint x="220" y="370" />
              <mxPoint x="220" y="375" />
            </Array>
          </mxGeometry>
        </mxCell>
        <mxCell id="o4-KJ6wp64jlqF8P8WxI-77" style="edgeStyle=orthogonalEdgeStyle;rounded=0;orthogonalLoop=1;jettySize=auto;html=1;entryX=1;entryY=0.75;entryDx=0;entryDy=0;exitX=0.5;exitY=1;exitDx=0;exitDy=0;" edge="1" parent="1" source="o4-KJ6wp64jlqF8P8WxI-73" target="o4-KJ6wp64jlqF8P8WxI-3">
          <mxGeometry relative="1" as="geometry">
            <mxPoint x="405" y="530" as="targetPoint" />
            <mxPoint x="400" y="320" as="sourcePoint" />
            <Array as="points">
              <mxPoint x="390" y="325" />
              <mxPoint x="390" y="550" />
              <mxPoint x="263" y="550" />
              <mxPoint x="263" y="543" />
            </Array>
          </mxGeometry>
        </mxCell>
        <mxCell id="o4-KJ6wp64jlqF8P8WxI-73" value="REALIZAR" style="rhombus;whiteSpace=wrap;html=1;" vertex="1" parent="1">
          <mxGeometry x="350" y="250" width="80" height="75" as="geometry" />
        </mxCell>
        <mxCell id="o4-KJ6wp64jlqF8P8WxI-83" value="EsAdmin" style="ellipse;whiteSpace=wrap;html=1;" vertex="1" parent="1">
          <mxGeometry x="245" y="60" width="80" height="40" as="geometry" />
        </mxCell>
        <mxCell id="o4-KJ6wp64jlqF8P8WxI-85" value="1,n" style="text;html=1;align=center;verticalAlign=middle;resizable=0;points=[];autosize=1;strokeColor=none;fillColor=none;" vertex="1" parent="1">
          <mxGeometry x="320" y="120" width="40" height="30" as="geometry" />
        </mxCell>
        <mxCell id="o4-KJ6wp64jlqF8P8WxI-87" value="1,1" style="text;html=1;align=center;verticalAlign=middle;resizable=0;points=[];autosize=1;strokeColor=none;fillColor=none;" vertex="1" parent="1">
          <mxGeometry x="414" y="120" width="40" height="30" as="geometry" />
        </mxCell>
        <mxCell id="o4-KJ6wp64jlqF8P8WxI-89" value="N,1" style="text;html=1;align=center;verticalAlign=middle;resizable=0;points=[];autosize=1;strokeColor=none;fillColor=none;" vertex="1" parent="1">
          <mxGeometry x="365" y="60" width="40" height="30" as="geometry" />
        </mxCell>
        <mxCell id="o4-KJ6wp64jlqF8P8WxI-90" value="1,n" style="text;html=1;align=center;verticalAlign=middle;resizable=0;points=[];autosize=1;strokeColor=none;fillColor=none;" vertex="1" parent="1">
          <mxGeometry x="650" y="272.5" width="40" height="30" as="geometry" />
        </mxCell>
        <mxCell id="o4-KJ6wp64jlqF8P8WxI-91" value="0,n" style="text;html=1;align=center;verticalAlign=middle;resizable=0;points=[];autosize=1;strokeColor=none;fillColor=none;" vertex="1" parent="1">
          <mxGeometry x="630" y="325" width="40" height="30" as="geometry" />
        </mxCell>
        <mxCell id="o4-KJ6wp64jlqF8P8WxI-92" value="1,n" style="text;html=1;align=center;verticalAlign=middle;resizable=0;points=[];autosize=1;strokeColor=none;fillColor=none;" vertex="1" parent="1">
          <mxGeometry x="630" y="242.5" width="40" height="30" as="geometry" />
        </mxCell>
        <mxCell id="o4-KJ6wp64jlqF8P8WxI-93" value="N,M,N" style="text;html=1;align=center;verticalAlign=middle;resizable=0;points=[];autosize=1;strokeColor=none;fillColor=none;" vertex="1" parent="1">
          <mxGeometry x="550" y="290" width="60" height="30" as="geometry" />
        </mxCell>
        <mxCell id="o4-KJ6wp64jlqF8P8WxI-95" value="1,1" style="text;html=1;align=center;verticalAlign=middle;resizable=0;points=[];autosize=1;strokeColor=none;fillColor=none;" vertex="1" parent="1">
          <mxGeometry x="420" y="290" width="40" height="30" as="geometry" />
        </mxCell>
        <mxCell id="o4-KJ6wp64jlqF8P8WxI-96" value="1,n" style="text;html=1;align=center;verticalAlign=middle;resizable=0;points=[];autosize=1;strokeColor=none;fillColor=none;" vertex="1" parent="1">
          <mxGeometry x="325" y="260" width="40" height="30" as="geometry" />
        </mxCell>
        <mxCell id="o4-KJ6wp64jlqF8P8WxI-97" value="1,n" style="text;html=1;align=center;verticalAlign=middle;resizable=0;points=[];autosize=1;strokeColor=none;fillColor=none;" vertex="1" parent="1">
          <mxGeometry x="385" y="320" width="40" height="30" as="geometry" />
        </mxCell>
        <mxCell id="o4-KJ6wp64jlqF8P8WxI-98" value="N,1,N" style="text;html=1;align=center;verticalAlign=middle;resizable=0;points=[];autosize=1;strokeColor=none;fillColor=none;" vertex="1" parent="1">
          <mxGeometry x="365" y="220" width="50" height="30" as="geometry" />
        </mxCell>
        <mxCell id="o4-KJ6wp64jlqF8P8WxI-99" value="ID_Usuario" style="ellipse;whiteSpace=wrap;html=1;" vertex="1" parent="1">
          <mxGeometry x="97" y="242.5" width="83" height="40" as="geometry" />
        </mxCell>
      </root>
    </mxGraphModel>
  </diagram>
</mxfile>
